<svg width="86" height="84" viewBox="0 0 86 84" fill="none" xmlns="http://www.w3.org/2000/svg">
<g id="Arrow_08">
<g id="Group">
<g id="Group_2">
<path id="Vector" d="M57.4543 42.9361L57.0466 41.7297C56.1181 42.0441 55.0545 42.7563 53.962 43.7814C53.9618 43.7816 53.9616 43.7818 53.9614 43.782C53.954 43.7889 53.9465 43.7959 53.9391 43.8029C51.0367 46.5342 47.8095 51.4761 46.0742 56.079L47.2903 56.5369M57.4543 42.9361L57.0484 41.7291C57.2513 41.6605 57.4477 41.6109 57.6365 41.5812C58.5094 41.4431 59.2601 41.672 59.8424 42.3231L58.8703 43.1717M57.4543 42.9361C57.5851 42.8919 57.7121 42.8591 57.8344 42.8398C57.8348 42.8398 57.8352 42.8397 57.8356 42.8396C58.2436 42.7755 58.5994 42.8612 58.8703 43.1717M57.4543 42.9361C56.6686 43.2003 55.7792 43.8382 54.8432 44.7185C54.8358 44.7254 54.8285 44.7323 54.8211 44.7393C54.821 44.7394 54.8208 44.7396 54.8207 44.7397C52.0346 47.373 48.9517 52.1207 47.2903 56.5369M58.8703 43.1717L59.8428 42.3235C59.8492 42.3307 59.8557 42.338 59.8621 42.3454M58.8703 43.1717C58.8766 43.179 58.8829 43.1863 58.8891 43.1936L59.8621 42.3454M59.8621 42.3454C60.3433 42.8974 60.6185 43.6009 60.6996 44.4256M59.8621 42.3454L58.8908 43.1957C59.1963 43.5576 59.353 44.0196 59.4036 44.5524L60.6996 44.4256M60.6996 44.4256C60.7184 44.6173 60.7265 44.8161 60.7245 45.0215L59.422 45.0113M60.6996 44.4256L59.4036 44.5531C59.4176 44.7006 59.4234 44.8535 59.422 45.0113M59.422 45.0113L60.7245 45.023C60.7147 45.9965 60.4765 47.1165 60.0562 48.3168C60.054 48.3232 60.0517 48.3295 60.0495 48.3358L58.8224 47.9062M59.422 45.0113C59.4154 45.8595 59.196 46.8374 58.8291 47.8871C58.8291 47.8872 58.829 47.8872 58.829 47.8872C58.8268 47.8935 58.8246 47.8999 58.8224 47.9062M58.8224 47.9062L60.0492 48.3367C58.1586 53.715 52.6339 60.781 49.6369 63.0504C49.6293 63.0561 49.6217 63.0618 49.6141 63.0676C49.6139 63.0677 49.6138 63.0678 49.6136 63.0679C48.8765 63.6259 48.1296 64.1756 47.3723 64.7161L47.1363 64.0192L47.015 63.6509L48.2431 63.2432C48.1821 63.0592 48.1354 62.8428 48.1073 62.5925C48.3524 62.4104 48.5963 62.2275 48.8392 62.0439C48.8466 62.0382 48.8541 62.0325 48.8616 62.0268C48.8617 62.0268 48.8617 62.0267 48.8618 62.0267C51.7439 59.8305 57.0203 53.053 58.8224 47.9062ZM47.2903 56.5369C47.288 56.543 47.2857 56.5491 47.2834 56.5552C47.2834 56.5553 47.2833 56.5554 47.2833 56.5555C46.6081 58.3526 46.1601 60.0906 46.0875 61.5951C45.7885 61.8126 45.488 62.0287 45.1863 62.2432L45.9291 63.2882C45.8257 63.3614 45.7222 63.4344 45.6185 63.5073L45.0175 63.9293L45.0081 63.9357C44.4734 61.8873 44.952 59.0591 46.0671 56.0976C46.0694 56.0915 46.0717 56.0854 46.074 56.0793L47.2903 56.5369ZM14.0551 76.3384C14.0539 76.3383 14.0526 76.3382 14.0514 76.3381C10.4361 76.0227 7.06258 74.8054 3.64198 73.5039L14.0551 76.3384ZM14.0551 76.3384L14.1657 75.0691L14.0553 76.3384C24.3336 77.2318 34.7011 73.0364 43.9312 67.0602" fill="#1F1F1F" stroke="black" stroke-width="4"/>
<path id="Vector_2" fill-rule="evenodd" clip-rule="evenodd" d="M1.44629 71.1103C1.49016 71.4015 1.63908 71.7718 1.81059 72.1606C2.19747 73.0408 2.74787 73.9799 2.9925 74.4344C3.15869 74.7457 3.03638 75.1311 2.7173 75.2944C2.39822 75.4577 2.00469 75.3365 1.83717 75.0251C1.53936 74.4697 0.810788 73.2242 0.419914 72.1925C0.219159 71.6624 0.111464 71.1743 0.132736 70.8225C0.155338 70.4775 0.298929 70.2452 0.503673 70.0803C0.719052 69.9069 1.05276 69.8043 1.49814 69.8177C1.9874 69.8329 2.68539 69.9844 3.45252 70.0399C4.096 70.087 4.7993 70.0668 5.43879 69.7538C5.76053 69.5956 6.15274 69.7218 6.31361 70.0365C6.47448 70.3496 6.34551 70.7333 6.02377 70.8898C4.82456 71.4789 3.46315 71.351 2.38758 71.1995C2.06717 71.1541 1.66964 71.1238 1.44629 71.1103Z" fill="#1F1F1F"/>
</g>
</g>
</g>
</svg>
