<svg width="37" height="36" viewBox="0 0 37 36" fill="none" xmlns="http://www.w3.org/2000/svg">
<g id="Map">
<path id="Vector 326" d="M32 25.1953V8.16466C32 7.84631 31.6785 7.62861 31.3829 7.74685L24.6351 10.446C24.5473 10.4811 24.4506 10.4877 24.3588 10.4647L12.6412 7.53529C12.5494 7.51235 12.4527 7.51891 12.3649 7.55404L5.28287 10.3869C5.11203 10.4552 5 10.6207 5 10.8047V27.8353C5 28.1537 5.32154 28.3714 5.61713 28.2531L12.3649 25.554C12.4527 25.5189 12.5494 25.5123 12.6412 25.5353L24.3588 28.4647C24.4506 28.4877 24.5473 28.4811 24.6351 28.446L31.7171 25.6131C31.888 25.5448 32 25.3793 32 25.1953Z" stroke="#33363F" stroke-width="2" stroke-linejoin="round"/>
<path id="Vector 327" d="M24.5 28.5V10.5" stroke="#33363F" stroke-width="2"/>
<path id="Vector 328" d="M12.5 25.5L12.5 7.5" stroke="#33363F" stroke-width="2"/>
</g>
</svg>
